<?xml version="1.0" encoding="UTF-8" standalone="no"?>
<!-- Created with Inkscape (http://www.inkscape.org/) -->

<svg
   xmlns:dc="http://purl.org/dc/elements/1.1/"
   xmlns:cc="http://creativecommons.org/ns#"
   xmlns:rdf="http://www.w3.org/1999/02/22-rdf-syntax-ns#"
   xmlns:svg="http://www.w3.org/2000/svg"
   xmlns="http://www.w3.org/2000/svg"
   xmlns:sodipodi="http://sodipodi.sourceforge.net/DTD/sodipodi-0.dtd"
   xmlns:inkscape="http://www.inkscape.org/namespaces/inkscape"
   width="744.09448819"
   height="1052.3622047"
   id="svg2"
   version="1.1"
   inkscape:version="0.48.4 r9939"
   sodipodi:docname="logo.svg">
  <defs
     id="defs4" />
  <sodipodi:namedview
     id="base"
     pagecolor="#ffffff"
     bordercolor="#666666"
     borderopacity="1.0"
     inkscape:pageopacity="0.0"
     inkscape:pageshadow="2"
     inkscape:zoom="0.90514301"
     inkscape:cx="440.69802"
     inkscape:cy="846.38479"
     inkscape:document-units="px"
     inkscape:current-layer="layer1"
     showgrid="false"
     inkscape:window-width="1600"
     inkscape:window-height="796"
     inkscape:window-x="-8"
     inkscape:window-y="-8"
     inkscape:window-maximized="1" />
  <metadata
     id="metadata7">
    <rdf:RDF>
      <cc:Work
         rdf:about="">
        <dc:format>image/svg+xml</dc:format>
        <dc:type
           rdf:resource="http://purl.org/dc/dcmitype/StillImage" />
        <dc:title></dc:title>
      </cc:Work>
    </rdf:RDF>
  </metadata>
  <g
     inkscape:label="Layer 1"
     inkscape:groupmode="layer"
     id="layer1">
    <path
       id="rect6692"
       style="opacity:0.98999999;color:#000000;fill:#653359;fill-opacity:1;fill-rule:nonzero;stroke:none;stroke-width:0.90763831;marker:none;visibility:visible;display:inline;overflow:visible;enable-background:accumulate"
       d="m 694.32722,178.72279 c -3.9576,1.3798 -4.0407,1.3809 -6.2759,0.079 -6.8635,-3.9976 -7.236,-23.7168 -0.8076,-42.74935 4.9521,-14.73911 11.7486,-28.83055 27.0576,-38.918805 6.0342,-2.64921 12.8005,-1.78332 15.5433,5.678135 -1.1028,14.55912 -3.6711,31.54368 -8.3367,45.87608 -3.7275,11.45065 -10.8952,21.83961 -27.1807,30.03514 z m -102.0075,-17.4457 c -12.8319,6.62267 -3.3052,-15.48279 0.7397,-24.78362 7.2028,-15.11545 9.5202,-21.91433 24.6379,-28.84881 2.5626,-1.07451 5.5029,-1.6184 8.7896,-0.98121 2.4428,0.30822 2.7471,0.83136 3.3663,5.78791 1.6191,14.48986 -8.2634,27.48629 -19.3626,36.42417 -6.0777,4.53792 -11.7262,7.93885 -18.1709,12.40156 z m -65.5383,-123.432345 -18.2187,54.875 c -8.556,25.769705 -18.6342,52.721055 -24.8438,74.343745 -6.2096,21.62269 -6.2818,38.63534 -0.7812,47.3125 7.0691,8.51328 18.3263,7.41931 27.9374,3.53125 5.5006,-2.5071 19.2846,-12.045 22.0313,-15.25 0.6054,-0.7064 2.4054,-2.4519 4,-3.875 1.5945,-1.4231 4.2281,-4.2356 5.875,-6.25 1.6469,-2.0144 3.5168,-3.65625 4.1563,-3.65625 -0.4408,3.74471 4.9223,17.86205 15.0937,23.5 15.4874,8.17638 32.5288,2.51096 46.875,-5.71875 13.0752,-7.5608 25.659,-18.01998 34.75,-31.9375 -0.5065,7.93795 5.9774,20.29608 18.6563,26.125 8.7378,3.08731 17.866,2.28403 25.7187,-0.53125 7.8527,-2.81528 18.2616,-7.86156 25.7813,-14.78125 3.9625,-3.5822 6.5,-4.5977 6.5,-2.625 4.102,10.9894 17.6363,13.36473 24.2187,10.96875 5.6644,-1.4399 8.3241,-2.76305 14.2813,-7.15625 9.5083,-7.0118 15.5468,-14.47165 22.1562,-27.34375 3.6645,-7.13677 10.3438,-24.86905 10.3438,-27.46875 0,-1.03201 -7.1331,-5.03125 -8.9688,-5.03125 -0.5719,0 -1.0312,0.47788 -1.0312,1.0625 0,0.58462 -1.1953,3.62212 -2.625,6.75 -1.4299,3.12788 -3.2626,7.2625 -4.0938,9.1875 -0.8311,1.925 -2.0019,4.4 -2.5938,5.5 -7.5345,14.0045 -10.1853,17.5 -13.25,17.5 -1.2338,0 -2.5099,-0.6925 -2.8437,-1.5625 -3.8865,-12.26404 5.0042,-40.95109 6.7187,-55.4375 1.6778,-6.82851 3.1808,-14.060865 4.2188,-20.124995 0.7727,-4.51372 0.7285,-4.50649 -19.125,-4.78125 -12.4679,-0.17256 -14.771,0.0248 -15.7812,1.40625 -0.9678,1.32344 -1.729,1.41846 -4.0626,0.53125 -1.5702,-0.59702 -6.0553,-1.32563 -9.9687,-1.625 -5.9282,-0.45351 -8.5118,-0.1029 -15.5937,2.125 -7.999,2.54219 -17.8455,7.51102 -25.3126,14.218745 -13.0021,11.90278 -27.0054,30.91075 -30.6874,50.6875 0,0.78669 -1.8135,4.0514 -4.0313,7.25 -7.8844,11.38742 -18.4688,23.82488 -31.4375,29.71875 -5.3275,2.15517 -11.0194,3.32366 -16.5312,3.625 -7.2403,-0.1444 -11.6141,-4.58195 -12.7188,-12.90625 -0.5488,-4.135 1.5844,-7.3388 5.7188,-8.625 11.6421,-3.83611 23.9879,-11.27094 34.6874,-19.4375 8.4516,-6.05876 20.1825,-19.17488 21.8126,-24.375 2.1208,-6.70606 3.0237,-10.03697 0.7187,-17.625 -0.1574,-2.97686 -6.8005,-9.65739 -10.5313,-10.593745 -6.7484,-3.19731 -18.5199,-2.35488 -29.4062,1.374995 -22.1289,8.12552 -33.3682,20.88848 -42.0625,36.65625 -5.4617,9.98803 -10.4012,22.44997 -15.0313,33.71875 -1.5475,1.8066 -3.9085,4.85625 -5.2187,6.78125 -2.362,3.4704 -5.3061,6.4848 -12.5313,12.75 -6.724,5.8305 -11.4374,3.56005 -11.4374,-5.53125 0.3334,-13.80432 4.5286,-28.95237 9.3437,-44.125 6.2304,-19.55108 12.4802,-42.054655 18.6875,-64.562495 l 28.375,0 0,-9.71875 -25.6875,0 c 2.6923,-9.77259 5.3798,-19.46559 8.0313,-28.84375 z m -230.9012,86.594915 c 15.8509,-9.69257 31.7017,-19.38513 47.5526,-29.077695 12.3754,-8.75419 20.2786,-18.95654 24.305,-28.29293 3.5695,-8.27708 4.092,-15.8736 2.125,-21.41879 -5.6901,-14.95868 -22.2085,-6.90203 -32.6929,0.29853 -24.6328,16.18746 -36.1715,38.69445 -36.1715,38.69445 -1.7692,4.08573 -5.2187,9.70765 -7.0753,15.23867 -1.5466,4.124995 -4.3006,11.324995 -6.1199,15.999995 -3.1934,8.20585 -5.1136,15 -4.2393,15 0.2322,0 2.4054,-1.125 4.8294,-2.50001 2.424,-1.375 5.7931,-3.14901 7.4869,-3.94222 z m 57.8925,-90.461965 c 17.9368,-2.13127 27.8166,2.11484 32.4355,8.82387 10.9725,25.63491 -14.1971,42.29213 -32.3658,56.85513 -10.2987,7.136065 -19.3096,14.346175 -29.5418,20.583435 -2.475,1.50011 -5.175,3.14536 -6,3.65613 -3.1915,1.97588 -15.6704,9.38269 -19,11.27735 -1.925,1.0954 -4.85,2.81171 -6.5,3.81401 -1.65,1.00231 -5.1375,2.79397 -7.75,3.98147 -2.6125,1.1875 -4.75,2.55367 -4.75,3.03594 0,0.48227 -0.6401,0.87686 -1.4224,0.87686 -2.2915,0 -6.0203,14.0483 -6.9782,26.2904 -0.2922,3.7348 -0.7577,7.1568 -1.0344,7.6044 -0.9724,17.99192 -3.3093,37.27196 -1.5687,55.6124 2.4405,30.68415 24.985,54.30132 50.4248,58.66831 6.3205,0.95794 12.7021,1.22341 18.2389,0.69225 22.435,-2.2522 50.1826,-13.09936 63.7164,-18.80311 29.2716,-11.89966 58.2834,-26.06282 87.2971,-35.41815 21.9102,-7.02268 44.747,-12.06133 62.3265,-14.5711 17.6894,-2.5169 30.4243,-3.2498 47.5,-2.7335 35.1736,1.61789 60.4708,7.87198 86,27.6581 0,0 -13.2028,-2.92056 -19,-3.2089 -17.6324,-0.23102 -35.0059,0.78083 -50.7665,5.52332 -15.3162,5.52764 -24.3014,10.91856 -35.1344,20.67568 -2.5267,-1.66484 -5.097,-3.22225 -7.7051,-4.67254 -25.9884,-14.45116 -55.7394,-18.26806 -83.6654,-11.78322 -28.9502,7.70767 -50.0209,16.77964 -76.2286,28.66716 -40.4436,20.39743 -89.3308,35.79357 -124.8027,30.10675 -40.52558,-11.01016 -66.83842,-32.16145 -69.73871,-71.338 -1.57757,-23.49903 5.27869,-48.6725 9.04361,-66.86455 l 0.6641,-3.3943 c -7.0567,1.83484 -22.7101,8.37013 -27.2285,11.8905 -0.8595,0.7531 -2.3462,3.9633 -3.3038,7.1337 -0.9575,3.1704 -2.1262,6.6644 -2.5971,7.7644 -7.7607,18.1302 -8.9431,20.5779 -13.7681,28.5 -2.5123,4.125 -5.5129,8.4829 -6.6679,9.6842 -1.1551,1.2012 -4.1252,4.8234 -6.6002,8.0493 -9.7629,10.43138 -27.1523,27.28001 -40.4436,33.2665 -0.2885,0 -3.1192,1.2487 -6.2905,2.775 -24.4964,11.34444 -55.4412,17.93682 -81.0531,11.80257 -19.8018,-4.92634 -37.8812998,-17.17931 -39.46769979,-38.14475 -0.585,-10.30083 4.36319999,-20.8221 14.62039979,-29.10302 8.3261,-6.4267 22.242,-9.9519 31.0619,-7.8687 14.2782,3.3723 21.4567,12.2106 17.6444,21.7238 -2.2695,5.6634 -14.4796,15.1304 -23.0722,17.8891 -5.8453,1.8766 -10.4342,4.1624 -11.7182,5.8371 -1.8497,2.4125 -1.5158,6.9213 0.6875,9.2864 38.318,28.82288 84.5752,-6.12967 101.5081,-39.3833 4.1772,-9.70458 11.3083,-20.53003 11.8582,-27.8829 0.1642,-3.3769 0.1604,-3.3797 -3.8356,-2.9058 -14.7726,1.06337 -31.1663,-0.37089 -43.2758,-5.9841 -15.7047,-7.22521 -23.5888,-18.93588 -25.4954,-32.12883 -2.0332,-22.16679 9.6037,-42.46485 24.6876,-58.45812 9.8305,-10.092685 22.7809,-22.175795 35.9119,-27.502785 1.7444,-0.67435 5.4217,-2.21775 8.1717,-3.42978 2.75,-1.21203 7.7,-2.75885 11,-3.43738 8.8688,-2.82608 18.9917,-3.09901 26.9572,-3.5981 9.7507,-0.61455 10.8179,-0.5228 9.6924,0.83333 -0.6956,0.83816 -3.0365,1.82326 -5.2019,2.18911 -8.4636,2.87432 -17.166,6.93141 -23.9477,10.67874 -15.7989,8.80191 -30.7428,20.431475 -41.8498,34.746055 -1.4576,1.94621 -3.6857,4.72463 -4.9513,6.17427 -7.3365,9.46444 -13.5407,21.06903 -17.108,31.61059 -2.8489,8.4726 -2.7355,16.2259 0.3321,22.7104 9.3368,16.99037 29.1932,17.67153 47.3914,14.6369 6.9884,-1.2117 7.3896,-1.4309 9,-4.917 7.1954,-13.29965 13.4807,-28.22783 19.9302,-39.64527 13.4398,-22.74447 26.2994,-45.05124 45.0599,-65.331785 1.4825,-1.58024 4.2705,-4.57281 6.1955,-6.65015 1.925,-2.07734 5.075,-4.95702 7,-6.39929 6.5778,-5.25623 11.2108,-7.88729 16.8444,-8.37574 1.5606,5.69001 -3.9318,10.00135 -7.7399,18.75344 -1.716,3.3 -3.5347,6.675 -4.0415,7.5 -0.5068,0.825 -1.904,3.75 -3.1049,6.5 -1.2009,2.75 -3.4828,7.626305 -5.0708,10.836225 -1.588,3.20993 -2.8873,6.31064 -2.8873,6.89047 0,0.57983 -0.8392,2.90353 -1.8648,5.16377 -4.995,11.00742 -6.1352,13.74589 -6.1352,14.73515 0,0.58967 -0.6052,2.49013 -1.3449,4.22325 -0.7397,1.73312 -2.1371,5.85113 -3.1054,9.15113 -0.9683,3.3 -2.3554,7.8 -3.0824,10 -1.9391,5.8678 -3.872,15.4286 -3.2458,16.0548 8.5129,-1.30294 22.5118,-8.46367 30.2414,-12.55703 0,0 0.5936,-2.54657 4.6755,-10.95949 8.135,-15.57628 15.0769,-32.55072 25.4583,-46.72156 3.9059,-6.330845 7.5394,-11.637255 12.0009,-16.955565 0,0 30.3834,-41.30593 77.8742,-52.26535 z m 50.6698,103.501205 55.5852,0 0,21.81189 -55.5852,0 z m -15.6553,-25.24195 c 0,7.43183 -7.4422,13.45653 -16.6227,13.45653 -9.1805,0 -16.6228,-6.0247 -16.6228,-13.45653 0,-7.43184 7.4423,-13.456535 16.6228,-13.456535 9.1805,0 16.6227,6.024695 16.6227,13.456535 z m 255.184,-82.937315 c -2.7945,7.29325 -7.5963,11.92302 -12.7745,15.98678 -6.4378,5.64522 -13.3401,9.23895 -18.8178,15.07619 -2.7913,2.9995 -4.5981,5.92291 -4.446,6.32711 -2.5949,0.3201 -4.2014,-3.52583 -3.9981,-7.69604 0.7069,-7.29332 7.2667,-11.69263 10.9662,-17.08917 1.7988,-2.18488 4.0961,-5.54121 6.1577,-9.04374 3.6512,-5.77648 5.1113,-11.43922 6.1413,-17.82186 6.1648,-1.58448 17.2878,12.87785 16.7712,14.26073 z m 25.7473,46.44827 c 0.1171,-8.50336 5.3145,-15.1698 10.3147,-19.7851 9.4089,-8.95634 24.8375,-20.58952 25.6792,-32.38418 0.049,-3.13275 0.222,-5.69609 0.3847,-5.69632 1.7215,-0.002 10.1439,5.67683 12.8552,8.66825 3.0419,3.35621 3.4119,4.32738 2.9834,7.83134 -0.3935,3.21684 -1.4743,4.91001 -5.5205,8.64791 -5.0198,4.6503 -11.4611,8.36172 -16.9981,11.07571 -8.4548,5.01411 -15.804,9.79797 -22.9899,16.579 -3.4111,3.23579 -6.43,5.51432 -6.7087,5.06339 z m -35.7362,-9.8403 c 6.8153,-16.99159 19.7919,-30.56097 29.5705,-45.24445 3.8678,-5.75983 7.1714,-13.78998 4.748,-20.22224003 4.3196,-3.16261997 20.5335,11.59407003 22.6291,15.44098003 0.9648,1.925 1.6468,4.85 1.5156,6.5 -0.8869,6.57791 -5.6637,17.42173 -20.617,26.5 -15.5782,10.59307 -28.5029,21.48009 -37.862,35.66667 -4.0832,-4.31832 -1.406,-14.4557 0.016,-18.64096 z M 329.11822,246.03319 c -10.3498,-5.3085 -13.2933,-13.7734 -10.3109,-29.6513 4.3896,-18.31751 13.3483,-39.49666 18.9704,-57.5 0.773,-2.475 2.4986,-7.65 3.8346,-11.5 l 2.4292,-7 14.3799,-0.12359 c 7.909,-0.068 16.0262,0.0955 18.0384,0.36318 3.4335,0.45683 3.6075,0.64897 2.8291,3.12359 -0.4562,1.45025 -1.7805,5.78682 -2.9428,9.63682 -1.1624,3.85 -2.5361,7.9 -3.0528,9 -1.0429,2.2207 -5.4759,14.7917 -7.4052,21 -0.6837,2.2 -1.8116,5.35 -2.5065,7 -1.6708,3.9672 -4.7817,16.8507 -5.433,22.5 -0.6147,5.3321 1.1983,8.7454 3.8554,7.2584 2.4473,-1.3696 12.4973,-11.4156 12.4973,-12.4924 0,-0.5112 1.4984,-2.8051 3.3298,-5.0977 1.8314,-2.2926 4.6056,-6.6433 6.1647,-9.6683 1.5592,-3.025 3.3233,-6.4087 3.9202,-7.5194 1.0906,-2.0291 4.1026,-2.2205 6.0353,-0.3835 0.5225,0.4966 1.7686,0.9029 2.7691,0.9029 3.7925,2.28336 -3.2189,10.82132 -4.6284,13.75 -2.7732,5.8434 -7.4236,12.91014 -12.5298,19.44841 -9.2575,10.90438 -20.6473,23.68051 -33.3266,27.29753 -5.5565,1.52089 -11.7062,1.84126 -16.9174,-0.34464 z"
       inkscape:connector-curvature="0"
       inkscape:export-filename="E:\projects\hi-tea\doc\logo.png"
       inkscape:export-xdpi="150"
       inkscape:export-ydpi="150"
       sodipodi:nodetypes="cscccscccccccccccsccscscccccsccccsssscccscccsscscccccccccccccccssccccccccccsccccssscccccsssssssccccccccccccscccccccccscccccccssssccccccccscccccccccccccscccsssscsssscccccccccccssssscccccccccccccscccccccccccccccccccsccccsssssscccccccc" />
  </g>
</svg>
