<?xml version="1.0" encoding="UTF-8" standalone="no"?>
<!-- Created with Inkscape (http://www.inkscape.org/) -->

<svg
   xmlns:dc="http://purl.org/dc/elements/1.1/"
   xmlns:cc="http://creativecommons.org/ns#"
   xmlns:rdf="http://www.w3.org/1999/02/22-rdf-syntax-ns#"
   xmlns:svg="http://www.w3.org/2000/svg"
   xmlns="http://www.w3.org/2000/svg"
   xmlns:sodipodi="http://sodipodi.sourceforge.net/DTD/sodipodi-0.dtd"
   xmlns:inkscape="http://www.inkscape.org/namespaces/inkscape"
   width="144"
   height="144"
   id="svg2"
   version="1.1"
   inkscape:version="0.48.4 r9939"
   sodipodi:docname="logo.svg">
  <defs
     id="defs4" />
  <sodipodi:namedview
     id="base"
     pagecolor="#ffffff"
     bordercolor="#666666"
     borderopacity="1.0"
     inkscape:pageopacity="0.0"
     inkscape:pageshadow="2"
     inkscape:zoom="3.0985026"
     inkscape:cx="33.432984"
     inkscape:cy="72"
     inkscape:document-units="px"
     inkscape:current-layer="layer1"
     showgrid="false"
     inkscape:window-width="1600"
     inkscape:window-height="796"
     inkscape:window-x="-8"
     inkscape:window-y="-8"
     inkscape:window-maximized="1" />
  <metadata
     id="metadata7">
    <rdf:RDF>
      <cc:Work
         rdf:about="">
        <dc:format>image/svg+xml</dc:format>
        <dc:type
           rdf:resource="http://purl.org/dc/dcmitype/StillImage" />
        <dc:title />
      </cc:Work>
    </rdf:RDF>
  </metadata>
  <g
     inkscape:label="Layer 1"
     inkscape:groupmode="layer"
     id="layer1"
     transform="translate(0,-908.36218)">
    <path
       id="rect6692"
       style="opacity:0.98999999;color:#000000;fill:#902a7c;fill-opacity:1;fill-rule:nonzero;stroke:#000000;stroke-width:0.99310344;stroke-miterlimit:4;stroke-opacity:1;stroke-dasharray:none;marker:none;visibility:visible;display:inline;overflow:visible;enable-background:accumulate"
       d="m 125.97613,983.89182 c -0.71522,0.24947 -0.73024,0.24957 -1.13419,0.0139 -1.24038,-0.72249 -1.3077,-4.28612 -0.14594,-7.72574 0.89494,-2.6637 2.12321,-5.21033 4.88987,-7.03347 1.09052,-0.47876 2.31331,-0.32226 2.80899,1.02618 -0.19928,2.63112 -0.66343,5.70062 -1.5066,8.29073 -0.67365,2.06942 -1.969,3.94688 -4.91213,5.428 z m -18.43491,-3.1528 c -2.31899,1.19689 -0.59732,-2.79803 0.13368,-4.47885 1.3017,-2.73174 1.7205,-3.96041 4.45259,-5.2136 0.46311,-0.19424 0.99449,-0.29246 1.58847,-0.17736 0.44146,0.0555 0.49646,0.15026 0.60835,1.04603 0.29262,2.61862 -1.49337,4.96731 -3.49923,6.58258 -1.09836,0.82013 -2.11916,1.43475 -3.28386,2.2412 z m -11.844153,-22.30679 -3.292505,9.91707 c -1.546251,4.65717 -3.367596,9.52784 -4.489799,13.43556 -1.122204,3.90756 -1.135254,6.98211 -0.141184,8.55022 1.277541,1.53861 3.311952,1.34089 5.048884,0.63817 0.99407,-0.45296 3.485131,-2.17669 3.981519,-2.75586 0.109406,-0.12762 0.434705,-0.44313 0.722882,-0.70034 0.288162,-0.25712 0.76411,-0.76539 1.061737,-1.12946 0.297633,-0.36417 0.635557,-0.66091 0.751129,-0.66091 -0.07967,0.6769 0.88956,3.22808 2.72776,4.24711 2.7989,1.47764 5.87863,0.45365 8.4713,-1.03362 2.36296,-1.36642 4.63712,-3.25649 6.28006,-5.77182 -0.0916,1.43473 1.08024,3.66803 3.37158,4.72141 1.57911,0.55793 3.22877,0.41283 4.64792,-0.0963 1.41914,-0.50877 3.30025,-1.42083 4.65923,-2.67135 0.7161,-0.6474 1.17467,-0.83083 1.17467,-0.47431 0.74133,1.98601 3.18726,2.41523 4.37683,1.98224 1.02368,-0.26029 1.50435,-0.49933 2.58094,-1.29332 1.71835,-1.2672 2.80962,-2.61524 4.0041,-4.94168 0.66225,-1.28972 1.86933,-4.49424 1.86933,-4.96408 0,-0.1865 -1.2891,-0.9093 -1.62085,-0.9093 -0.10336,0 -0.18636,0.0864 -0.18636,0.19208 0,0.10567 -0.21601,0.65456 -0.47438,1.21983 -0.25842,0.56527 -0.58964,1.31249 -0.73984,1.66037 -0.15022,0.34787 -0.36179,0.79518 -0.46876,0.99399 -1.36164,2.53088 -1.8407,3.16269 -2.39456,3.16269 -0.22297,0 -0.45359,-0.12523 -0.51392,-0.28244 -0.70236,-2.21635 0.90438,-7.40076 1.21422,-10.01877 0.30322,-1.23403 0.57484,-2.54106 0.76243,-3.63695 0.13964,-0.81573 0.13164,-0.81444 -3.45629,-0.86409 -2.25322,-0.0308 -2.66943,0 -2.85201,0.25413 -0.17489,0.23914 -0.31246,0.25632 -0.7342,0.0963 -0.28376,-0.10794 -1.09431,-0.23962 -1.80154,-0.29365 -1.07136,-0.0824 -1.53825,-0.0189 -2.81812,0.38404 -1.44559,0.45941 -3.22505,1.35736 -4.57451,2.56954 -2.34976,2.15107 -4.88045,5.58622 -5.54586,9.16032 0,0.1422 -0.32774,0.73217 -0.72855,1.31022 -1.42488,2.05791 -3.33771,4.3057 -5.68141,5.3709 -0.9628,0.3894 -1.99144,0.60053 -2.98754,0.65505 -1.30848,-0.0258 -2.09891,-0.82815 -2.29855,-2.3324 -0.0992,-0.74741 0.28632,-1.32629 1.0335,-1.55868 2.10398,-0.69328 4.33512,-2.03705 6.26875,-3.51284 1.52738,-1.095 3.6474,-3.46534 3.94199,-4.40511 0.38328,-1.21189 0.54645,-1.81391 0.12989,-3.18518 -0.0284,-0.53797 -1.229,-1.74529 -1.90322,-1.91451 -1.21958,-0.57778 -3.34695,-0.42555 -5.31433,0.24848 -3.99916,1.4685 -6.03035,3.77498 -7.60158,6.62459 -0.98705,1.80507 -1.87973,4.05717 -2.716479,6.09363 -0.279668,0.32653 -0.706349,0.8776 -0.943129,1.22559 -0.426866,0.62704 -0.958927,1.17196 -2.264669,2.3042 -1.215172,1.05368 -2.06698,0.64333 -2.06698,-0.99976 0.06025,-2.49458 0.818413,-5.23221 1.688598,-7.97427 1.12597,-3.53326 2.25544,-7.60012 3.377231,-11.66778 l 5.127968,0 0,-1.75639 -4.642288,0 c 0.486548,-1.76605 0.972248,-3.51781 1.451428,-5.21265 z m -41.728721,15.64956 c 2.864593,-1.75173 5.729165,-3.50336 8.593757,-5.255 2.236497,-1.58202 3.66477,-3.42581 4.392426,-5.11309 0.645086,-1.49582 0.739513,-2.86869 0.384036,-3.87084 -1.028325,-2.70336 -4.013546,-1.24736 -5.908301,0.0539 -4.451665,2.92538 -6.536951,6.99294 -6.536951,6.99294 -0.319732,0.73838 -0.94313,1.75432 -1.278655,2.75388 -0.279506,0.74552 -0.777209,2.04668 -1.105996,2.89161 -0.577114,1.48291 -0.924138,2.71078 -0.766129,2.71078 0.04196,0 0.434705,-0.20328 0.872772,-0.45176 0.438068,-0.24857 1.046937,-0.56915 1.353041,-0.71245 z M 64.43074,957.73338 c 3.241562,-0.38517 5.027052,0.3822 5.861779,1.59467 1.982968,4.63273 -2.56571,7.64303 -5.84918,10.27495 -1.861191,1.28965 -3.489655,2.5926 -5.338826,3.71986 -0.447285,0.27103 -0.935231,0.56836 -1.084331,0.66071 -0.576769,0.35702 -2.831967,1.69564 -3.433697,2.03806 -0.347886,0.19792 -0.876498,0.50817 -1.174687,0.6892 -0.298191,0.18115 -0.928456,0.50499 -1.400588,0.7196 -0.472135,0.21462 -0.858424,0.4615 -0.858424,0.54859 0,0.0874 -0.115681,0.15851 -0.25706,0.15851 -0.414121,0 -1.087995,2.53882 -1.261106,4.75116 -0.05281,0.67501 -0.13693,1.29342 -0.186939,1.37446 -0.175731,3.25152 -0.598059,6.73582 -0.283496,10.0503 0.441049,5.54524 4.515315,9.81335 9.112823,10.60255 1.142248,0.1731 2.295539,0.2211 3.296153,0.1252 4.054484,-0.4072 9.069055,-2.3674 11.514899,-3.3981 5.289994,-2.15061 10.533035,-4.71014 15.776427,-6.4009 3.959637,-1.26909 8.086723,-2.17986 11.263713,-2.63331 3.19686,-0.45484 5.49832,-0.58742 8.58425,-0.49407 6.35662,0.29247 10.92835,1.42272 15.54203,4.99849 0,0 -2.38604,-0.52784 -3.43371,-0.57997 -3.18655,-0.0417 -6.3263,0.14121 -9.17458,0.99826 -2.76796,0.99897 -4.39177,1.9732 -6.34953,3.7365 -0.45663,-0.3009 -0.92113,-0.5823 -1.39248,-0.8444 -4.696645,-2.61164 -10.073279,-3.30145 -15.120098,-2.12949 -5.231907,1.39292 -9.039828,3.03239 -13.776111,5.18069 -7.30901,3.6863 -16.143964,6.4687 -22.554484,5.4409 -7.323826,-1.9897 -12.07911,-5.8122 -12.603253,-12.89222 -0.285101,-4.24671 0.953972,-8.79622 1.634371,-12.08389 l 0.120016,-0.61344 c -1.275295,0.3316 -4.104195,1.5128 -4.920763,2.14888 -0.155331,0.13605 -0.42401,0.71622 -0.597065,1.28925 -0.173041,0.57302 -0.38425,1.20443 -0.469353,1.40325 -1.402522,3.27655 -1.616208,3.71878 -2.488186,5.15053 -0.454025,0.74543 -0.996298,1.53306 -1.20503,1.75015 -0.208752,0.21709 -0.74551,0.87165 -1.192797,1.4546 -1.76436,1.88521 -4.906992,4.93019 -7.309011,6.01209 -0.05214,0 -0.563704,0.2256 -1.136825,0.5015 -4.427017,2.0501 -10.019395,3.2415 -14.6480061,2.1329 -3.5786026,-0.8903 -6.84594872,-3.1047 -7.13264477,-6.89357 -0.10572182,-1.86157 0.78852217,-3.76296 2.64221537,-5.25957 1.5047006,-1.16134 4.0195971,-1.79841 5.6135391,-1.42203 2.5803724,0.60947 3.8776794,2.20678 3.1887154,3.92594 -0.410146,1.02349 -2.6167683,2.73441 -4.1696335,3.23295 -1.0563691,0.33924 -1.88568,0.75228 -2.1177246,1.05497 -0.3342816,0.43601 -0.2739386,1.25081 0.1242442,1.67821 6.9248709,5.2089 15.2845249,-1.1078 18.3446569,-7.11743 0.754907,-1.75382 2.043648,-3.71024 2.143025,-5.03911 0.02967,-0.61016 0.02899,-0.61066 -0.693173,-0.52495 -2.669721,0.19196 -5.632408,-0.0675 -7.820849,-1.08149 -2.838172,-1.30584 -4.262996,-3.42224 -4.607557,-5.80638 -0.367443,-4.00603 1.73559,-7.67436 4.461569,-10.56469 1.776579,-1.82393 4.116989,-4.00758 6.490038,-4.97028 0.31525,-0.12186 0.979815,-0.40082 1.476799,-0.6199 0.496982,-0.21897 1.391551,-0.49853 1.987931,-0.62118 1.602779,-0.51075 3.432203,-0.56001 4.871735,-0.6503 1.762159,-0.11101 1.955022,-0.0943 1.751622,0.15067 -0.125708,0.15145 -0.54876,0.32951 -0.940094,0.39564 -1.529551,0.5194 -3.102258,1.25261 -4.327855,1.92981 -2.855194,1.59075 -5.555872,3.69246 -7.56314,6.27939 -0.26342,0.35175 -0.666085,0.85387 -0.894805,1.11584 -1.325859,1.71044 -2.44709,3.80757 -3.091776,5.71269 -0.514857,1.53107 -0.494364,2.93234 0.06001,4.1042 1.687356,3.07048 5.275826,3.19362 8.564625,2.64513 1.262952,-0.21898 1.335458,-0.2585 1.626491,-0.88843 1.300361,-2.40361 2.436247,-5.10147 3.601806,-7.1648 2.428858,-4.11046 4.752856,-8.14175 8.143276,-11.8069 0.267917,-0.28553 0.771768,-0.82637 1.119657,-1.20176 0.347888,-0.3754 0.917158,-0.89587 1.265047,-1.15646 1.188748,-0.94991 2.026029,-1.42541 3.04414,-1.51369 0.282031,1.02826 -0.710559,1.80745 -1.398763,3.38916 -0.310119,0.59636 -0.638798,1.20623 -0.730387,1.35539 -0.09158,0.14906 -0.344093,0.67769 -0.56112,1.17463 -0.217027,0.49705 -0.629415,1.37824 -0.9164,1.9584 -0.286986,0.58008 -0.521797,1.14039 -0.521797,1.24526 0,0.10478 -0.151659,0.52466 -0.337007,0.93311 -0.902703,1.9893 -1.108758,2.48426 -1.108758,2.66302 0,0.10656 -0.109376,0.44998 -0.243054,0.76319 -0.133678,0.31324 -0.386222,1.05746 -0.561213,1.65383 -0.17499,0.59636 -0.425671,1.40962 -0.557054,1.8072 -0.350436,1.06053 -0.69975,2.78833 -0.586585,2.90145 1.538461,-0.23557 4.068356,-1.52948 5.46526,-2.26924 0,0 0.107275,-0.46021 0.844962,-1.9807 1.470166,-2.81496 2.724714,-5.88256 4.60085,-8.44357 0.705878,-1.14416 1.362528,-2.10309 2.168817,-3.06421 0,0 5.490919,-7.46486 14.07351,-9.44546 z m 9.1571,18.70485 10.045424,0 0,3.94178 -10.045424,0 z m -2.829234,-4.56172 c 0,1.34307 -1.344968,2.43182 -3.004079,2.43182 -1.659111,0 -3.004091,-1.08875 -3.004091,-2.43182 0,-1.34318 1.34498,-2.43191 3.004091,-2.43191 1.659111,0 3.004079,1.08873 3.004079,2.43191 z m 46.117124,-14.98855 c -0.50502,1.31804 -1.3728,2.15473 -2.30861,2.88915 -1.16345,1.02023 -2.41084,1.66962 -3.40078,2.72461 -0.50445,0.54203 -0.83097,1.07036 -0.80348,1.14345 -0.46896,0.0576 -0.75929,-0.63727 -0.72255,-1.39085 0.12775,-1.31804 1.31325,-2.11314 1.98183,-3.0884 0.32508,-0.39486 0.74025,-1.00142 1.11283,-1.6344 0.65985,-1.04393 0.92371,-2.06731 1.10986,-3.22078 1.1141,-0.28634 3.12426,2.32731 3.0309,2.57722 z m 4.65309,8.39415 c 0.0212,-1.53673 0.96044,-2.74147 1.86409,-3.57557 1.70038,-1.61858 4.48865,-3.72094 4.64077,-5.85249 0.009,-0.56616 0.0401,-1.0294 0.0695,-1.02944 0.31109,-2.9e-4 1.83321,1.02591 2.32321,1.56653 0.54973,0.60654 0.6166,0.78205 0.53916,1.41529 -0.0711,0.58135 -0.26644,0.88734 -0.99766,1.56286 -0.90719,0.84039 -2.07127,1.51118 -3.07192,2.00158 -1.52797,0.9062 -2.85613,1.77069 -4.15477,2.99618 -0.61646,0.58485 -1.16203,0.99659 -1.2124,0.91506 z m -6.45829,-1.77835 c 1.23168,-3.07068 3.57682,-5.52299 5.34402,-8.1766 0.69899,-1.04092 1.29602,-2.49215 0.85805,-3.65458 0.78066,-0.57156 3.71084,2.09529 4.08956,2.79051 0.17437,0.34788 0.29762,0.87649 0.27391,1.17468 -0.16028,1.18877 -1.02355,3.14848 -3.72594,4.78915 -2.81531,1.9143 -5.15107,3.88184 -6.84246,6.44564 -0.73792,-0.78039 -0.25409,-2.61246 0.003,-3.3688 z m -55.095374,32.55259 c -1.870425,-0.95944 -2.402384,-2.48912 -1.863402,-5.35869 0.793297,-3.31041 2.412324,-7.13793 3.428357,-10.39154 0.139696,-0.44723 0.451549,-1.38246 0.69299,-2.07821 l 0.439007,-1.26502 2.598748,-0.0218 c 1.42933,-0.0119 2.896278,0.0169 3.259926,0.0655 0.620506,0.0824 0.651945,0.11728 0.511275,0.56448 -0.08245,0.26207 -0.32177,1.04584 -0.531828,1.74161 -0.210066,0.69571 -0.458325,1.42763 -0.551706,1.62635 -0.188469,0.40141 -0.989609,2.67324 -1.338272,3.79514 -0.123559,0.39764 -0.327397,0.96689 -0.45298,1.26512 -0.301947,0.71692 -0.864152,3.04525 -0.981852,4.06626 -0.111091,0.96361 0.216555,1.58043 0.696749,1.31169 0.442277,-0.24738 2.258527,-2.06307 2.258527,-2.25762 0,-0.0924 0.270791,-0.50698 0.601762,-0.9213 0.330971,-0.41433 0.832329,-1.20047 1.11409,-1.74727 0.281783,-0.5467 0.600592,-1.15816 0.708465,-1.35886 0.197094,-0.36666 0.741425,-0.40122 1.090704,-0.0695 0.09442,0.0894 0.319622,0.16317 0.500436,0.16317 0.685385,0.41263 -0.581718,1.95562 -0.836445,2.48494 -0.501177,1.05597 -1.341603,2.3331 -2.264401,3.51469 -1.673026,1.97062 -3.731401,4.27958 -6.022818,4.93334 -1.004176,0.2748 -2.115558,0.33269 -3.057332,-0.0626 z"
       inkscape:connector-curvature="0"
       inkscape:export-filename="E:\projects\hi-tea\App\src\main\res\drawable\logo.png"
       inkscape:export-xdpi="89.994286"
       inkscape:export-ydpi="89.994286"
       sodipodi:nodetypes="cscccscccccccccccsccscscccccsccccsssscccscccsscscccccccccccccccssccccccccccsccccssscccccsssssssccccccccccccscccccccccscccccccssssccccccccscccccccccccccscccsssscsssscccccccccccssssscccccccccccccscccccccccccccccccccsccccsssssscccccccc" />
    <rect
       style="color:#000000;fill:none;stroke:none;stroke-width:1;marker:none;visibility:visible;display:inline;overflow:visible;enable-background:accumulate"
       id="rect3753"
       width="144"
       height="144"
       x="0"
       y="908.36218"
       inkscape:export-filename="E:\projects\hi-tea\App\src\main\res\drawable\logo.png"
       inkscape:export-xdpi="89.994286"
       inkscape:export-ydpi="89.994286" />
  </g>
</svg>
