<?xml version="1.0" encoding="UTF-8" standalone="no"?>
<!-- Created with Inkscape (http://www.inkscape.org/) -->

<svg
   xmlns:dc="http://purl.org/dc/elements/1.1/"
   xmlns:cc="http://creativecommons.org/ns#"
   xmlns:rdf="http://www.w3.org/1999/02/22-rdf-syntax-ns#"
   xmlns:svg="http://www.w3.org/2000/svg"
   xmlns="http://www.w3.org/2000/svg"
   xmlns:sodipodi="http://sodipodi.sourceforge.net/DTD/sodipodi-0.dtd"
   xmlns:inkscape="http://www.inkscape.org/namespaces/inkscape"
   width="144"
   height="144"
   id="svg2"
   version="1.1"
   inkscape:version="0.48.4 r9939"
   sodipodi:docname="logo.svg">
  <defs
     id="defs4" />
  <sodipodi:namedview
     id="base"
     pagecolor="#ffffff"
     bordercolor="#666666"
     borderopacity="1.0"
     inkscape:pageopacity="0.0"
     inkscape:pageshadow="2"
     inkscape:zoom="4.3819444"
     inkscape:cx="72"
     inkscape:cy="72"
     inkscape:document-units="px"
     inkscape:current-layer="layer1"
     showgrid="false"
     inkscape:window-width="1600"
     inkscape:window-height="796"
     inkscape:window-x="-8"
     inkscape:window-y="-8"
     inkscape:window-maximized="1" />
  <metadata
     id="metadata7">
    <rdf:RDF>
      <cc:Work
         rdf:about="">
        <dc:format>image/svg+xml</dc:format>
        <dc:type
           rdf:resource="http://purl.org/dc/dcmitype/StillImage" />
        <dc:title></dc:title>
      </cc:Work>
    </rdf:RDF>
  </metadata>
  <g
     inkscape:label="Layer 1"
     inkscape:groupmode="layer"
     id="layer1"
     transform="translate(0,-908.36218)">
    <path
       id="rect6692"
       style="opacity:0.98999999000000005;color:#000000;fill:#902a7c;fill-opacity:1;fill-rule:nonzero;stroke:none;stroke-width:0.90763830999999995;marker:none;visibility:visible;display:inline;overflow:visible;enable-background:accumulate"
       d="m 126.35096,983.91631 c -0.72018,0.2512 -0.73531,0.2513 -1.14206,0.014 -1.249,-0.7275 -1.31678,-4.31588 -0.14696,-7.77939 0.90116,-2.6822 2.13796,-5.24651 4.92383,-7.08231 1.09809,-0.48209 2.32938,-0.3245 2.8285,1.0333 -0.20067,2.6494 -0.66804,5.74021 -1.51706,8.34831 -0.67833,2.08379 -1.98268,3.97429 -4.94625,5.46569 z m -18.56293,-3.1747 c -2.33509,1.2052 -0.60146,-2.81746 0.13461,-4.50995 1.31074,-2.75071 1.73245,-3.98791 4.48351,-5.24981 0.46633,-0.19559 1.0014,-0.29449 1.5995,-0.17859 0.44453,0.0559 0.49991,0.1513 0.61258,1.0533 0.29465,2.6368 -1.50374,5.0018 -3.52353,6.62829 -1.10599,0.82582 -2.13388,1.44471 -3.30667,2.25676 z m -11.926399,-22.4617 -3.31537,9.98594 c -1.556989,4.68951 -3.390982,9.59401 -4.520978,13.52886 -1.129997,3.9347 -1.143138,7.0306 -0.142164,8.6096 1.286412,1.5493 3.334951,1.3502 5.083945,0.6426 1.000974,-0.4561 3.509334,-2.1918 4.009169,-2.775 0.110165,-0.1285 0.437723,-0.4462 0.727902,-0.7052 0.290163,-0.2589 0.769416,-0.7707 1.06911,-1.1373 0.2997,-0.3667 0.63997,-0.6655 0.756345,-0.6655 -0.08022,0.6816 0.89574,3.2505 2.7467,4.2766 2.81834,1.4879 5.91946,0.4568 8.53013,-1.0408 2.37937,-1.3759 4.66932,-3.2791 6.32367,-5.8119 -0.0922,1.4447 1.08774,3.6935 3.395,4.7542 1.59007,0.5618 3.25119,0.4157 4.68019,-0.097 1.429,-0.5123 3.32317,-1.4307 4.69159,-2.6899 0.72107,-0.6519 1.18283,-0.8366 1.18283,-0.4776 0.74647,1.9998 3.20939,2.432 4.40722,1.996 1.03079,-0.2621 1.5148,-0.5028 2.59886,-1.3023 1.73029,-1.276 2.82914,-2.6334 4.03191,-4.976 0.66685,-1.29867 1.88231,-4.52545 1.88231,-4.99855 0,-0.1878 -1.29805,-0.91561 -1.6321,-0.91561 -0.10408,0 -0.18766,0.087 -0.18766,0.19341 0,0.1064 -0.21751,0.6591 -0.47767,1.2283 -0.26022,0.5692 -0.59374,1.3216 -0.74498,1.6719 -0.15126,0.35029 -0.3643,0.8007 -0.47202,1.00089 -1.37109,2.54846 -1.85348,3.18466 -2.41118,3.18466 -0.22452,0 -0.45674,-0.1261 -0.51749,-0.2844 -0.70724,-2.23175 0.91066,-7.45216 1.22265,-10.08835 0.30532,-1.2426 0.57883,-2.55871 0.76772,-3.66221 0.14061,-0.82139 0.13256,-0.82009 -3.48029,-0.87009 -2.26887,-0.031 -2.68797,0 -2.87181,0.2559 -0.17611,0.2408 -0.31463,0.2581 -0.7393,0.097 -0.28573,-0.10869 -1.10191,-0.24129 -1.81405,-0.29569 -1.0788,-0.083 -1.54894,-0.019 -2.83769,0.3867 -1.45563,0.4626 -3.24745,1.36679 -4.60628,2.58739 -2.36608,2.16601 -4.91434,5.62501 -5.58437,9.22393 0,0.14319 -0.33002,0.73726 -0.73361,1.31932 -1.43478,2.0722 -3.36089,4.3356 -5.72087,5.4082 -0.96948,0.3921 -2.00527,0.6047 -3.00828,0.6596 -1.31757,-0.026 -2.11349,-0.8339 -2.31452,-2.3486 -0.0999,-0.7526 0.28831,-1.3355 1.04068,-1.5695 2.11859,-0.6981 4.36522,-2.0512 6.31228,-3.53724 1.53799,-1.1026 3.67273,-3.4894 3.96937,-4.4357 0.38594,-1.22031 0.55024,-1.82651 0.13079,-3.2073 -0.0286,-0.5417 -1.23753,-1.75741 -1.91644,-1.9278 -1.22805,-0.5818 -3.37019,-0.42851 -5.35123,0.2502 -4.02693,1.4787 -6.07223,3.8012 -7.65437,6.6706 -0.99391,1.8176 -1.89278,4.08534 -2.735343,6.13594 -0.28161,0.3288 -0.711254,0.8837 -0.949679,1.2341 -0.42983,0.6314 -0.965586,1.1801 -2.280395,2.3202 -1.223611,1.061 -2.081335,0.6478 -2.081335,-1.0067 0.06067,-2.5119 0.824097,-5.26854 1.700325,-8.02964 1.133789,-3.5578 2.271103,-7.6529 3.400684,-11.74881 l 5.163573,0 0,-1.76859 -4.67452,0 c 0.48993,-1.77831 0.979,-3.54224 1.46151,-5.24885 z m -42.018504,15.75824 c 2.884486,-1.76389 5.768951,-3.52769 8.653436,-5.29149 2.252028,-1.59301 3.69022,-3.4496 4.422929,-5.1486 0.649566,-1.50621 0.744648,-2.88861 0.386703,-3.89772 -1.035466,-2.72213 -4.041418,-1.25602 -5.949331,0.0543 -4.482579,2.9457 -6.582347,7.04151 -6.582347,7.04151 -0.321952,0.7435 -0.949679,1.7665 -1.287534,2.773 -0.281447,0.7507 -0.782606,2.06089 -1.113677,2.91169 -0.581121,1.49321 -0.930555,2.72961 -0.771449,2.72961 0.04225,0 0.437724,-0.2047 0.878833,-0.4549 0.44111,-0.2503 1.054207,-0.5731 1.362437,-0.7174 z m 10.53505,-16.46194 c 3.264072,-0.38784 5.061962,0.38485 5.902485,1.60574 1.996739,4.66491 -2.583527,7.69611 -5.889799,10.34631 -1.874116,1.2986 -3.513889,2.6106 -5.375901,3.74569 -0.450391,0.27291 -0.941726,0.57231 -1.091861,0.6653 -0.580775,0.3595 -2.851634,1.70741 -3.457542,2.05221 -0.350302,0.1993 -0.882585,0.5117 -1.182845,0.69399 -0.300262,0.18241 -0.934903,0.5085 -1.410314,0.7246 -0.475414,0.21611 -0.864385,0.4647 -0.864385,0.5524 0,0.088 -0.116485,0.15961 -0.258846,0.15961 -0.416996,0 -1.09555,2.55645 -1.269863,4.78415 -0.05318,0.6797 -0.137881,1.3024 -0.188237,1.384 -0.176952,3.2741 -0.602213,6.7826 -0.285465,10.1201 0.444112,5.5837 4.546671,9.88149 9.176106,10.67619 1.150181,0.1743 2.311481,0.2226 3.319043,0.126 4.08264,-0.41 9.132035,-2.3838 11.594864,-3.4217 5.32673,-2.16549 10.606181,-4.74279 15.885985,-6.44529 3.987135,-1.2779 8.142881,-2.195 11.341938,-2.6516 3.21905,-0.458 5.5365,-0.5915 8.64386,-0.4975 6.40076,0.2945 11.00424,1.4326 15.64996,5.0332 0,0 -2.40261,-0.5315 -3.45756,-0.584 -3.20868,-0.042 -6.37023,0.1422 -9.23829,1.0052 -2.78718,1.0059 -4.42227,1.9869 -6.39362,3.76239 -0.4598,-0.3029 -0.92753,-0.5863 -1.40215,-0.8502 -4.729263,-2.62979 -10.143235,-3.32439 -15.225101,-2.14429 -5.26824,1.4026 -9.102605,3.05349 -13.871778,5.21669 -7.359767,3.7119 -16.256075,6.5136 -22.711113,5.4787 -7.374686,-2.0036 -12.162992,-5.8526 -12.690775,-12.98179 -0.287081,-4.2762 0.960596,-8.8573 1.64572,-12.1678 l 0.12085,-0.6177 c -1.284151,0.3339 -4.132696,1.5233 -4.954935,2.1638 -0.15641,0.137 -0.426955,0.7212 -0.601211,1.2982 -0.174243,0.577 -0.386919,1.2128 -0.472613,1.413 -1.412261,3.2993 -1.627431,3.7446 -2.505465,5.1863 -0.457178,0.7506 -1.003217,1.5437 -1.213398,1.7623 -0.210202,0.2186 -0.750687,0.8777 -1.20108,1.4647 -1.776613,1.8983 -4.941069,4.96439 -7.359768,6.05379 -0.0525,0 -0.567619,0.2272 -1.14472,0.505 -4.45776,2.0644 -10.088974,3.264 -14.7497283,2.1477 -3.603454,-0.8964 -6.89349002,-3.1262 -7.18217702,-6.94139 -0.106456,-1.8745 0.793998,-3.7891 2.66056402,-5.2961 1.51515,-1.1694 4.047511,-1.8109 5.652522,-1.4319 2.5982913,0.6137 3.9046073,2.2221 3.2108593,3.9532 -0.412994,1.0306 -2.6349403,2.7534 -4.1985893,3.2554 -1.063705,0.3416 -1.898775,0.7575 -2.132431,1.0623 -0.336603,0.43899 -0.275841,1.25949 0.125107,1.68989 6.9729603,5.245 15.3906673,-1.1155 18.4720503,-7.16689 0.760149,-1.766 2.05784,-3.736 2.157907,-5.0741 0.02988,-0.6144 0.02919,-0.6149 -0.697987,-0.5286 -2.68826,0.1933 -5.671522,-0.068 -7.87516,-1.089 -2.857882,-1.3149 -4.2926,-3.446 -4.639554,-5.8467 -0.369995,-4.03385 1.747643,-7.72765 4.492552,-10.63805 1.788917,-1.8366 4.145579,-4.03541 6.535108,-5.0048 0.317439,-0.12271 0.986619,-0.4036 1.487054,-0.6242 0.500434,-0.2205 1.401215,-0.502 2.001737,-0.6255 1.613909,-0.5143 3.456037,-0.5639 4.905566,-0.65481 1.774396,-0.11179 1.968599,-0.095 1.763786,0.15171 -0.126581,0.1525 -0.552571,0.3318 -0.946622,0.39839 -1.540173,0.52301 -3.123802,1.26131 -4.35791,1.94321 -2.875022,1.6018 -5.594454,3.7181 -7.615662,6.323 -0.265249,0.35419 -0.67071,0.8598 -0.901019,1.12359 -1.335066,1.72231 -2.464083,3.83401 -3.113246,5.75236 -0.518433,1.5417 -0.497797,2.9527 0.06043,4.1327 1.699074,3.0918 5.312464,3.2158 8.624102,2.6635 1.271722,-0.2205 1.344732,-0.2603 1.637786,-0.8946 1.309391,-2.4203 2.453165,-5.1369 3.626819,-7.21456 2.445725,-4.139 4.785862,-8.19829 8.199826,-11.88889 0.269778,-0.28751 0.777128,-0.83211 1.127433,-1.2101 0.350303,-0.37801 0.923527,-0.9021 1.273832,-1.1645 1.197003,-0.9565 2.040098,-1.4353 3.065279,-1.5242 0.28399,1.0354 -0.715493,1.82 -1.408476,3.4127 -0.312273,0.6005 -0.643234,1.2146 -0.735459,1.3648 -0.09222,0.1501 -0.346483,0.6824 -0.565017,1.18279 -0.218534,0.5005 -0.633786,1.38781 -0.922764,1.972 -0.288979,0.58411 -0.525421,1.14831 -0.525421,1.25391 0,0.1055 -0.152712,0.5283 -0.339347,0.93959 -0.908972,2.00311 -1.116458,2.50151 -1.116458,2.68151 0,0.1073 -0.110135,0.4531 -0.244741,0.76849 -0.134607,0.31541 -0.388904,1.0648 -0.565111,1.66531 -0.176205,0.6005 -0.428627,1.41941 -0.560922,1.81975 -0.35287,1.0679 -0.70461,2.8077 -0.590659,2.9216 1.549145,-0.2372 4.096609,-1.5401 5.503214,-2.285 0,0 0.108019,-0.4634 0.850829,-1.99445 1.480376,-2.83451 2.743636,-5.92341 4.632801,-8.50221 0.71078,-1.1521 1.37199,-2.11769 2.183878,-3.08549 0,0 5.52905,-7.5167 14.171243,-9.51105 z m 9.220691,18.83475 10.115183,0 0,3.96915 -10.115183,0 z m -2.848882,-4.5934 c 0,1.35239 -1.354308,2.4487 -3.024941,2.4487 -1.670632,0 -3.024952,-1.09631 -3.024952,-2.4487 0,-1.35251 1.35432,-2.4488 3.024952,-2.4488 1.670633,0 3.024941,1.09629 3.024941,2.4488 z m 46.437384,-15.09264 c -0.50853,1.32719 -1.38234,2.16969 -2.32465,2.90921 -1.17152,1.02732 -2.42758,1.68122 -3.42439,2.74353 -0.50795,0.5458 -0.83674,1.0778 -0.80906,1.15139 -0.47222,0.058 -0.76456,-0.64169 -0.72757,-1.4005 0.12864,-1.3272 1.32237,-2.12782 1.99559,-3.10985 0.32734,-0.3976 0.74539,-1.00838 1.12056,-1.64575 0.66443,-1.05118 0.93013,-2.08167 1.11757,-3.24315 1.12184,-0.28833 3.14596,2.34347 3.05195,2.59512 z m 4.6854,8.45244 c 0.0213,-1.5474 0.96711,-2.76051 1.87703,-3.6004 1.71219,-1.62982 4.51983,-3.74678 4.673,-5.89313 0.009,-0.57009 0.0404,-1.03655 0.07,-1.03659 0.31325,-2.9e-4 1.84594,1.03304 2.33934,1.57741 0.55355,0.61075 0.62088,0.78748 0.5429,1.42512 -0.0716,0.58538 -0.26829,0.8935 -1.00459,1.57371 -0.91349,0.84623 -2.08565,1.52168 -3.09325,2.01548 -1.53858,0.91249 -2.87596,1.78299 -4.18362,3.01699 -0.62074,0.58891 -1.1701,1.00351 -1.22082,0.92141 z m -6.50314,-1.7907 c 1.24023,-3.092 3.60166,-5.56134 5.38113,-8.23338 0.70385,-1.04815 1.30502,-2.50946 0.86401,-3.67996 0.78608,-0.57553 3.73661,2.10984 4.11796,2.80989 0.17558,0.3503 0.29969,0.88258 0.27581,1.18284 -0.16139,1.19702 -1.03066,3.17034 -3.75181,4.82241 -2.83486,1.92759 -5.18684,3.90879 -6.88998,6.4904 -0.74304,-0.78581 -0.25585,-2.63061 0.003,-3.3922 z m -55.477979,32.77865 c -1.883414,-0.9661 -2.419067,-2.5064 -1.876342,-5.3959 0.798806,-3.3334 2.429076,-7.1875 3.452165,-10.4637 0.140666,-0.45034 0.454685,-1.39206 0.697802,-2.09265 l 0.442056,-1.2738 2.616795,-0.022 c 1.439256,-0.012 2.916391,0.017 3.282564,0.066 0.624815,0.083 0.656472,0.1181 0.514826,0.5684 -0.08302,0.26389 -0.324005,1.0531 -0.535522,1.75371 -0.211524,0.70054 -0.461507,1.43754 -0.555537,1.63764 -0.189778,0.4042 -0.996481,2.6918 -1.347566,3.8215 -0.124417,0.4004 -0.32967,0.9736 -0.456125,1.2739 -0.304044,0.7219 -0.870153,3.0664 -0.988671,4.0945 -0.111862,0.9703 0.218059,1.5914 0.701588,1.3208 0.445348,-0.2491 2.274211,-2.0774 2.274211,-2.2733 0,-0.093 0.272672,-0.5105 0.605941,-0.9277 0.333269,-0.4172 0.838109,-1.2088 1.121827,-1.7594 0.28374,-0.5505 0.604763,-1.1662 0.713385,-1.3683 0.198462,-0.3692 0.746573,-0.404 1.098278,-0.07 0.09508,0.09 0.321842,0.1643 0.503911,0.1643 0.690145,0.4155 -0.585757,1.9692 -0.842253,2.5022 -0.504658,1.0633 -1.35092,2.3493 -2.280126,3.5391 -1.684645,1.9843 -3.757314,4.3093 -6.064644,4.9676 -1.011149,0.2767 -2.130249,0.335 -3.078563,-0.063 z"
       inkscape:connector-curvature="0"
       inkscape:export-filename="E:\projects\hi-tea\doc\logo.png"
       inkscape:export-xdpi="90.000023"
       inkscape:export-ydpi="90.000023"
       sodipodi:nodetypes="cscccscccccccccccsccscscccccsccccsssscccscccsscscccccccccccccccssccccccccccsccccssscccccsssssssccccccccccccscccccccccscccccccssssccccccccscccccccccccccscccsssscsssscccccccccccssssscccccccccccccscccccccccccccccccccsccccsssssscccccccc" />
    <rect
       style="color:#000000;fill:none;stroke:none;stroke-width:1;marker:none;visibility:visible;display:inline;overflow:visible;enable-background:accumulate"
       id="rect3753"
       width="144"
       height="144"
       x="0"
       y="908.36218"
       inkscape:export-filename="E:\projects\hi-tea\App\src\main\res\drawable\logo.png"
       inkscape:export-xdpi="90"
       inkscape:export-ydpi="90" />
  </g>
</svg>
